<svg width="324" height="108" viewBox="0 0 324 108" fill="none" xmlns="http://www.w3.org/2000/svg">
<circle cx="41.5" cy="71.6212" r="6.58333" fill="#D9D9D9"/>
<path d="M57.6591 71.6212C57.6591 68.4252 56.7114 65.301 54.9358 62.6436C53.1602 59.9863 50.6365 57.9151 47.6838 56.6921C44.7312 55.4691 41.4821 55.1491 38.3476 55.7726C35.213 56.3961 32.3337 57.9351 30.0738 60.195C27.8139 62.4548 26.2749 65.3341 25.6514 68.4687C25.0279 71.6032 25.3479 74.8523 26.571 77.805C27.794 80.7577 29.8652 83.2814 32.5225 85.0569C35.1799 86.8325 38.3041 87.7802 41.5 87.7802V79.3775C39.966 79.3775 38.4664 78.9226 37.1908 78.0703C35.9153 77.2181 34.9211 76.0067 34.3341 74.5894C33.747 73.1721 33.5934 71.6126 33.8927 70.108C34.192 68.6034 34.9307 67.2213 36.0155 66.1366C37.1002 65.0518 38.4823 64.3131 39.9868 64.0138C41.4914 63.7145 43.051 63.8682 44.4683 64.4552C45.8856 65.0423 47.0969 66.0364 47.9492 67.312C48.8015 68.5875 49.2564 70.0871 49.2564 71.6212H57.6591Z" fill="#958787"/>
<path d="M41.5 98.553C48.6428 98.553 55.493 95.7155 60.5437 90.6649C65.5944 85.6142 68.4318 78.7639 68.4318 71.6212C68.4318 64.4784 65.5944 57.6282 60.5437 52.5775C55.493 47.5268 48.6428 44.6894 41.5 44.6894L41.5 54.1155C46.1428 54.1155 50.5954 55.9598 53.8784 59.2428C57.1613 62.5257 59.0057 66.9784 59.0057 71.6212C59.0057 76.264 57.1613 80.7166 53.8784 83.9996C50.5954 87.2825 46.1428 89.1269 41.5 89.1269L41.5 98.553Z" fill="#B2AFAF"/>
<path d="M41.5002 107.53C31.9765 107.53 22.8429 103.747 16.1086 97.0128C9.37435 90.2785 5.59108 81.1449 5.59106 71.6212C5.59105 62.0976 9.37429 52.964 16.1085 46.2297C22.8428 39.4954 31.9764 35.7121 41.5 35.7121L41.5001 44.6894C34.3573 44.6894 27.5071 47.5269 22.4564 52.5776C17.4058 57.6283 14.5683 64.4785 14.5683 71.6212C14.5683 78.764 17.4058 85.6142 22.4565 90.6649C27.5072 95.7156 34.3574 98.553 41.5002 98.553V107.53Z" fill="#D5D5D5"/>
<path d="M16.9057 38.7045C24.9547 34.9341 45.5245 29.2784 65.7962 38.7045L63.7094 28.2011L81 21.7375L40.7547 1L2 24.1614L18.6943 28.2011L16.9057 38.7045Z" fill="#2B2B2B"/>
<path d="M65.7962 38.7045C45.5245 29.2784 24.9547 34.9341 16.9057 38.7045L18.6943 28.2011L2 24.1614L40.7547 1L81 21.7375L63.7094 28.2011M65.7962 38.7045C64.1268 30.3018 63.7094 28.2011 63.7094 28.2011M65.7962 38.7045L63.7094 28.2011" stroke="#2B2B2B"/>
<path d="M76.2121 22.2462V50.0758L78.606 53.6667L76.8106 53.0682L77.1098 55.4622L75.6136 53.6667L74.7159 54.8637L75.0151 52.4697L73.5189 53.0682L75.6136 50.0758V22.2462H76.2121Z" fill="#2B2B2B"/>
<path d="M76.2121 22.2462C76.2121 33.1144 76.2121 50.0758 76.2121 50.0758M76.2121 22.2462H75.6136V50.0758L73.5189 53.0682L75.0151 52.4697L74.7159 54.8637L75.6136 53.6667L77.1098 55.4622L76.8106 53.0682L78.606 53.6667L76.2121 50.0758M76.2121 22.2462V50.0758" stroke="#2B2B2B" stroke-width="2"/>
<path d="M19.3561 27.0341C38.6609 20.007 48.1653 20.1957 63.0455 27.0341" stroke="#6B6B6B" stroke-width="2" stroke-linecap="round"/>
<path d="M85.116 62V32.6H89.568L100.278 50.03L98.136 49.988L108.972 32.6H113.172V62H108.636V49.946C108.636 47.426 108.692 45.158 108.804 43.142C108.944 41.126 109.168 39.124 109.476 37.136L110.064 38.69L100.446 53.558H97.674L88.35 38.858L88.812 37.136C89.12 39.012 89.33 40.944 89.442 42.932C89.582 44.892 89.652 47.23 89.652 49.946V62H85.116ZM131.243 62.42C128.975 62.42 126.959 61.944 125.195 60.992C123.459 60.012 122.087 58.682 121.079 57.002C120.099 55.322 119.609 53.39 119.609 51.206C119.609 49.47 119.889 47.888 120.449 46.46C121.009 45.032 121.779 43.8 122.759 42.764C123.767 41.7 124.957 40.888 126.329 40.328C127.729 39.74 129.241 39.446 130.865 39.446C132.293 39.446 133.623 39.726 134.855 40.286C136.087 40.818 137.151 41.56 138.047 42.512C138.971 43.464 139.671 44.598 140.147 45.914C140.651 47.202 140.889 48.616 140.861 50.156L140.819 52.004H122.801L121.835 48.56H137.081L136.451 49.274V48.266C136.367 47.342 136.059 46.516 135.527 45.788C134.995 45.06 134.323 44.486 133.511 44.066C132.699 43.646 131.817 43.436 130.865 43.436C129.353 43.436 128.079 43.73 127.043 44.318C126.007 44.878 125.223 45.718 124.691 46.838C124.159 47.93 123.893 49.288 123.893 50.912C123.893 52.452 124.215 53.796 124.859 54.944C125.503 56.064 126.413 56.932 127.589 57.548C128.765 58.164 130.123 58.472 131.663 58.472C132.755 58.472 133.763 58.29 134.687 57.926C135.639 57.562 136.661 56.904 137.753 55.952L139.937 59.018C139.265 59.69 138.439 60.278 137.459 60.782C136.507 61.286 135.485 61.692 134.393 62C133.329 62.28 132.279 62.42 131.243 62.42ZM156.482 62.42C154.214 62.42 152.198 61.944 150.434 60.992C148.698 60.012 147.326 58.682 146.318 57.002C145.338 55.322 144.848 53.39 144.848 51.206C144.848 49.47 145.128 47.888 145.688 46.46C146.248 45.032 147.018 43.8 147.998 42.764C149.006 41.7 150.196 40.888 151.568 40.328C152.968 39.74 154.48 39.446 156.104 39.446C157.532 39.446 158.862 39.726 160.094 40.286C161.326 40.818 162.39 41.56 163.286 42.512C164.21 43.464 164.91 44.598 165.386 45.914C165.89 47.202 166.128 48.616 166.1 50.156L166.058 52.004H148.04L147.074 48.56H162.32L161.69 49.274V48.266C161.606 47.342 161.298 46.516 160.766 45.788C160.234 45.06 159.562 44.486 158.75 44.066C157.938 43.646 157.056 43.436 156.104 43.436C154.592 43.436 153.318 43.73 152.282 44.318C151.246 44.878 150.462 45.718 149.93 46.838C149.398 47.93 149.132 49.288 149.132 50.912C149.132 52.452 149.454 53.796 150.098 54.944C150.742 56.064 151.652 56.932 152.828 57.548C154.004 58.164 155.362 58.472 156.902 58.472C157.994 58.472 159.002 58.29 159.926 57.926C160.878 57.562 161.9 56.904 162.992 55.952L165.176 59.018C164.504 59.69 163.678 60.278 162.698 60.782C161.746 61.286 160.724 61.692 159.632 62C158.568 62.28 157.518 62.42 156.482 62.42ZM174.162 62V34.322H178.488V62H174.162ZM169.584 44.15V39.95H183.612V44.15H169.584ZM189.273 62V32.6H193.725L204.435 50.03L202.293 49.988L213.129 32.6H217.329V62H212.793V49.946C212.793 47.426 212.849 45.158 212.961 43.142C213.101 41.126 213.325 39.124 213.633 37.136L214.221 38.69L204.603 53.558H201.831L192.507 38.858L192.969 37.136C193.277 39.012 193.487 40.944 193.599 42.932C193.739 44.892 193.809 47.23 193.809 49.946V62H189.273ZM225.11 62V57.8H229.856V36.8H225.11V32.6H239.138V36.8H234.392V57.8H239.138V62H225.11ZM255.96 62.42C254.364 62.42 252.88 62.21 251.508 61.79C250.164 61.37 248.932 60.74 247.812 59.9C246.72 59.032 245.74 57.968 244.872 56.708L247.98 53.138C249.352 55.098 250.668 56.456 251.928 57.212C253.188 57.968 254.686 58.346 256.422 58.346C257.486 58.346 258.452 58.178 259.32 57.842C260.188 57.506 260.874 57.044 261.378 56.456C261.882 55.868 262.134 55.196 262.134 54.44C262.134 53.936 262.05 53.46 261.882 53.012C261.714 52.564 261.448 52.158 261.084 51.794C260.748 51.43 260.3 51.094 259.74 50.786C259.208 50.478 258.578 50.212 257.85 49.988C257.122 49.736 256.282 49.526 255.33 49.358C253.818 49.05 252.502 48.644 251.382 48.14C250.262 47.636 249.324 47.006 248.568 46.25C247.812 45.494 247.252 44.64 246.888 43.688C246.524 42.708 246.342 41.616 246.342 40.412C246.342 39.236 246.594 38.144 247.098 37.136C247.63 36.128 248.344 35.26 249.24 34.532C250.164 33.776 251.242 33.202 252.474 32.81C253.706 32.39 255.036 32.18 256.464 32.18C257.976 32.18 259.362 32.376 260.622 32.768C261.882 33.16 263.002 33.748 263.982 34.532C264.962 35.288 265.774 36.226 266.418 37.346L263.226 40.496C262.666 39.572 262.036 38.802 261.336 38.186C260.636 37.542 259.866 37.066 259.026 36.758C258.186 36.422 257.29 36.254 256.338 36.254C255.246 36.254 254.294 36.422 253.482 36.758C252.67 37.094 252.026 37.57 251.55 38.186C251.102 38.774 250.878 39.474 250.878 40.286C250.878 40.874 250.99 41.42 251.214 41.924C251.438 42.4 251.774 42.834 252.222 43.226C252.698 43.59 253.328 43.926 254.112 44.234C254.896 44.514 255.834 44.766 256.926 44.99C258.466 45.326 259.838 45.76 261.042 46.292C262.246 46.796 263.268 47.398 264.108 48.098C264.948 48.798 265.578 49.582 265.998 50.45C266.446 51.318 266.67 52.256 266.67 53.264C266.67 55.14 266.236 56.764 265.368 58.136C264.5 59.508 263.268 60.572 261.672 61.328C260.076 62.056 258.172 62.42 255.96 62.42ZM272.635 62V57.8H277.381V36.8H272.635V32.6H286.663V36.8H281.917V57.8H286.663V62H272.635ZM303.486 62.42C301.89 62.42 300.406 62.21 299.034 61.79C297.69 61.37 296.458 60.74 295.338 59.9C294.246 59.032 293.266 57.968 292.398 56.708L295.506 53.138C296.878 55.098 298.194 56.456 299.454 57.212C300.714 57.968 302.212 58.346 303.948 58.346C305.012 58.346 305.978 58.178 306.846 57.842C307.714 57.506 308.4 57.044 308.904 56.456C309.408 55.868 309.66 55.196 309.66 54.44C309.66 53.936 309.576 53.46 309.408 53.012C309.24 52.564 308.974 52.158 308.61 51.794C308.274 51.43 307.826 51.094 307.266 50.786C306.734 50.478 306.104 50.212 305.376 49.988C304.648 49.736 303.808 49.526 302.856 49.358C301.344 49.05 300.028 48.644 298.908 48.14C297.788 47.636 296.85 47.006 296.094 46.25C295.338 45.494 294.778 44.64 294.414 43.688C294.05 42.708 293.868 41.616 293.868 40.412C293.868 39.236 294.12 38.144 294.624 37.136C295.156 36.128 295.87 35.26 296.766 34.532C297.69 33.776 298.768 33.202 300 32.81C301.232 32.39 302.562 32.18 303.99 32.18C305.502 32.18 306.888 32.376 308.148 32.768C309.408 33.16 310.528 33.748 311.508 34.532C312.488 35.288 313.3 36.226 313.944 37.346L310.752 40.496C310.192 39.572 309.562 38.802 308.862 38.186C308.162 37.542 307.392 37.066 306.552 36.758C305.712 36.422 304.816 36.254 303.864 36.254C302.772 36.254 301.82 36.422 301.008 36.758C300.196 37.094 299.552 37.57 299.076 38.186C298.628 38.774 298.404 39.474 298.404 40.286C298.404 40.874 298.516 41.42 298.74 41.924C298.964 42.4 299.3 42.834 299.748 43.226C300.224 43.59 300.854 43.926 301.638 44.234C302.422 44.514 303.36 44.766 304.452 44.99C305.992 45.326 307.364 45.76 308.568 46.292C309.772 46.796 310.794 47.398 311.634 48.098C312.474 48.798 313.104 49.582 313.524 50.45C313.972 51.318 314.196 52.256 314.196 53.264C314.196 55.14 313.762 56.764 312.894 58.136C312.026 59.508 310.794 60.572 309.198 61.328C307.602 62.056 305.698 62.42 303.486 62.42Z" fill="#F8F8F8"/>
<path d="M95.08 75.896V84H93.656V78.496C93.656 78.3893 93.6613 78.2747 93.672 78.152C93.6827 78.0293 93.696 77.9067 93.712 77.784C93.664 77.8907 93.616 77.9893 93.568 78.08C93.52 78.1707 93.4693 78.2533 93.416 78.328L89.504 83.648C89.4453 83.7333 89.3707 83.816 89.28 83.896C89.1947 83.9707 89.0987 84.008 88.992 84.008H88.128V75.904H89.56V81.408C89.56 81.5093 89.5547 81.6213 89.544 81.744C89.5333 81.8613 89.52 81.9813 89.504 82.104C89.552 82.0027 89.6 81.9093 89.648 81.824C89.696 81.7333 89.744 81.6507 89.792 81.576L93.704 76.256C93.7627 76.1707 93.8373 76.0907 93.928 76.016C94.0187 75.936 94.1173 75.896 94.224 75.896H95.08ZM111.003 82.92V86.352C111.003 86.4907 110.963 86.5973 110.883 86.672C110.808 86.752 110.71 86.792 110.587 86.792H109.707V84H98.6111V75.896H100.043V82.92H103.347V75.896H104.779V82.92H108.083V75.896H109.515V82.92H111.003ZM120.671 75.896V84H119.247V78.496C119.247 78.3893 119.253 78.2747 119.263 78.152C119.274 78.0293 119.287 77.9067 119.303 77.784C119.255 77.8907 119.207 77.9893 119.159 78.08C119.111 78.1707 119.061 78.2533 119.007 78.328L115.095 83.648C115.037 83.7333 114.962 83.816 114.871 83.896C114.786 83.9707 114.69 84.008 114.583 84.008H113.719V75.904H115.151V81.408C115.151 81.5093 115.146 81.6213 115.135 81.744C115.125 81.8613 115.111 81.9813 115.095 82.104C115.143 82.0027 115.191 81.9093 115.239 81.824C115.287 81.7333 115.335 81.6507 115.383 81.576L119.295 76.256C119.354 76.1707 119.429 76.0907 119.519 76.016C119.61 75.936 119.709 75.896 119.815 75.896H120.671ZM135 79.064C135 78.7333 134.952 78.432 134.856 78.16C134.765 77.8827 134.629 77.6453 134.448 77.448C134.272 77.2453 134.056 77.0907 133.8 76.984C133.544 76.872 133.253 76.816 132.928 76.816C132.245 76.816 131.704 77.016 131.304 77.416C130.909 77.8107 130.664 78.36 130.568 79.064H135ZM136.152 82.864C135.976 83.0773 135.765 83.264 135.52 83.424C135.275 83.5787 135.011 83.7067 134.728 83.808C134.451 83.9093 134.163 83.984 133.864 84.032C133.565 84.0853 133.269 84.112 132.976 84.112C132.416 84.112 131.899 84.0187 131.424 83.832C130.955 83.64 130.547 83.3627 130.2 83C129.859 82.632 129.592 82.1787 129.4 81.64C129.208 81.1013 129.112 80.4827 129.112 79.784C129.112 79.2187 129.197 78.6907 129.368 78.2C129.544 77.7093 129.795 77.2853 130.12 76.928C130.445 76.5653 130.843 76.2827 131.312 76.08C131.781 75.872 132.309 75.768 132.896 75.768C133.381 75.768 133.829 75.8507 134.24 76.016C134.656 76.176 135.013 76.4107 135.312 76.72C135.616 77.024 135.853 77.4027 136.024 77.856C136.195 78.304 136.28 78.816 136.28 79.392C136.28 79.616 136.256 79.7653 136.208 79.84C136.16 79.9147 136.069 79.952 135.936 79.952H130.52C130.536 80.464 130.605 80.9093 130.728 81.288C130.856 81.6667 131.032 81.984 131.256 82.24C131.48 82.4907 131.747 82.68 132.056 82.808C132.365 82.9307 132.712 82.992 133.096 82.992C133.453 82.992 133.76 82.952 134.016 82.872C134.277 82.7867 134.501 82.696 134.688 82.6C134.875 82.504 135.029 82.416 135.152 82.336C135.28 82.2507 135.389 82.208 135.48 82.208C135.597 82.208 135.688 82.2533 135.752 82.344L136.152 82.864ZM144.831 82.96V77.016H142.263C142.209 77.848 142.135 78.584 142.039 79.224C141.943 79.864 141.831 80.4267 141.703 80.912C141.58 81.392 141.441 81.8 141.287 82.136C141.137 82.472 140.98 82.7467 140.815 82.96H144.831ZM147.695 82.92V86.352C147.695 86.4907 147.655 86.5973 147.575 86.672C147.5 86.752 147.401 86.792 147.279 86.792H146.407V84H139.591V86.384C139.591 86.4853 139.559 86.5787 139.495 86.664C139.436 86.7493 139.337 86.792 139.199 86.792H138.303V82.96H138.567C138.753 82.96 138.937 82.928 139.119 82.864C139.305 82.8 139.484 82.68 139.655 82.504C139.825 82.3227 139.985 82.0693 140.135 81.744C140.289 81.4187 140.428 80.9947 140.551 80.472C140.673 79.9493 140.78 79.3147 140.871 78.568C140.961 77.816 141.033 76.9253 141.087 75.896H146.215V82.92H147.695ZM157.369 75.896V84H155.945V78.496C155.945 78.3893 155.951 78.2747 155.961 78.152C155.972 78.0293 155.985 77.9067 156.001 77.784C155.953 77.8907 155.905 77.9893 155.857 78.08C155.809 78.1707 155.759 78.2533 155.705 78.328L151.793 83.648C151.735 83.7333 151.66 83.816 151.569 83.896C151.484 83.9707 151.388 84.008 151.281 84.008H150.417V75.904H151.849V81.408C151.849 81.5093 151.844 81.6213 151.833 81.744C151.823 81.8613 151.809 81.9813 151.793 82.104C151.841 82.0027 151.889 81.9093 151.937 81.824C151.985 81.7333 152.033 81.6507 152.081 81.576L155.993 76.256C156.052 76.1707 156.127 76.0907 156.217 76.016C156.308 75.936 156.407 75.896 156.513 75.896H157.369ZM167.652 75.896V84H166.22V80.208H162.332V84H160.9V75.896H162.332V79.128H166.22V75.896H167.652ZM174.612 75.768C175.204 75.768 175.737 75.8667 176.212 76.064C176.687 76.2613 177.092 76.5413 177.428 76.904C177.764 77.2667 178.02 77.7067 178.196 78.224C178.377 78.736 178.468 79.3093 178.468 79.944C178.468 80.584 178.377 81.16 178.196 81.672C178.02 82.184 177.764 82.6213 177.428 82.984C177.092 83.3467 176.687 83.6267 176.212 83.824C175.737 84.016 175.204 84.112 174.612 84.112C174.015 84.112 173.476 84.016 172.996 83.824C172.521 83.6267 172.116 83.3467 171.78 82.984C171.444 82.6213 171.185 82.184 171.004 81.672C170.828 81.16 170.74 80.584 170.74 79.944C170.74 79.3093 170.828 78.736 171.004 78.224C171.185 77.7067 171.444 77.2667 171.78 76.904C172.116 76.5413 172.521 76.2613 172.996 76.064C173.476 75.8667 174.015 75.768 174.612 75.768ZM174.612 83C175.412 83 176.009 82.7333 176.404 82.2C176.799 81.6613 176.996 80.912 176.996 79.952C176.996 78.9867 176.799 78.2347 176.404 77.696C176.009 77.1573 175.412 76.888 174.612 76.888C174.207 76.888 173.852 76.9573 173.548 77.096C173.249 77.2347 172.999 77.4347 172.796 77.696C172.599 77.9573 172.449 78.28 172.348 78.664C172.252 79.0427 172.204 79.472 172.204 79.952C172.204 80.912 172.401 81.6613 172.796 82.2C173.196 82.7333 173.801 83 174.612 83ZM190.586 75.872V84H189.298V78.616C189.298 78.4667 189.306 78.3013 189.322 78.12C189.344 77.9333 189.37 77.76 189.402 77.6L186.586 82.536C186.544 82.616 186.488 82.68 186.418 82.728C186.349 82.776 186.269 82.8 186.178 82.8H186.018C185.928 82.8 185.845 82.776 185.77 82.728C185.701 82.68 185.645 82.616 185.602 82.536L182.738 77.584C182.765 77.744 182.789 77.92 182.81 78.112C182.832 78.2987 182.842 78.4667 182.842 78.616V84H181.554V75.872H182.698C182.8 75.872 182.898 75.896 182.994 75.944C183.09 75.9867 183.173 76.0693 183.242 76.192L185.77 80.416C185.893 80.6613 186.002 80.92 186.098 81.192C186.189 80.9093 186.296 80.6507 186.418 80.416L188.898 76.192C188.968 76.064 189.05 75.9787 189.146 75.936C189.242 75.8933 189.341 75.872 189.442 75.872H190.586ZM197.228 82.96C197.516 82.96 197.764 82.9253 197.972 82.856C198.185 82.7813 198.361 82.68 198.5 82.552C198.638 82.4187 198.742 82.264 198.812 82.088C198.881 81.912 198.916 81.72 198.916 81.512C198.916 81.32 198.886 81.1413 198.828 80.976C198.769 80.8053 198.67 80.656 198.532 80.528C198.398 80.4 198.222 80.2987 198.004 80.224C197.785 80.1493 197.518 80.112 197.204 80.112H195.476V82.96H197.228ZM197.204 79.072C197.764 79.072 198.233 79.1387 198.612 79.272C198.996 79.4053 199.302 79.584 199.532 79.808C199.766 80.032 199.934 80.2907 200.036 80.584C200.137 80.8773 200.188 81.1813 200.188 81.496C200.188 81.8587 200.124 82.1947 199.996 82.504C199.868 82.808 199.678 83.072 199.428 83.296C199.177 83.5147 198.868 83.688 198.5 83.816C198.132 83.9387 197.708 84 197.228 84H194.116V75.896H195.476V79.072H197.204ZM203.396 75.896V84H201.972V75.896H203.396ZM217.846 75.896V84H206.942V75.896H208.374V82.92H211.678V75.896H213.11V82.92H216.414V75.896H217.846ZM228.483 84H227.059V77.016H224.499C224.435 78.0453 224.339 78.936 224.211 79.688C224.083 80.4347 223.928 81.072 223.747 81.6C223.571 82.1227 223.371 82.5493 223.147 82.88C222.928 83.2053 222.696 83.4587 222.451 83.64C222.211 83.8213 221.96 83.944 221.699 84.008C221.443 84.072 221.187 84.104 220.931 84.104C220.477 84.104 220.251 84.032 220.251 83.888V82.984H220.667C220.848 82.984 221.032 82.952 221.219 82.888C221.405 82.824 221.587 82.7013 221.763 82.52C221.944 82.3387 222.117 82.0853 222.283 81.76C222.448 81.4293 222.597 81.0027 222.731 80.48C222.869 79.952 222.987 79.3147 223.083 78.568C223.184 77.816 223.261 76.9253 223.315 75.896H228.483V84ZM237.442 79.064C237.442 78.7333 237.394 78.432 237.298 78.16C237.207 77.8827 237.071 77.6453 236.89 77.448C236.714 77.2453 236.498 77.0907 236.242 76.984C235.986 76.872 235.695 76.816 235.37 76.816C234.687 76.816 234.146 77.016 233.746 77.416C233.351 77.8107 233.106 78.36 233.01 79.064H237.442ZM238.594 82.864C238.418 83.0773 238.207 83.264 237.962 83.424C237.717 83.5787 237.453 83.7067 237.17 83.808C236.893 83.9093 236.605 83.984 236.306 84.032C236.007 84.0853 235.711 84.112 235.418 84.112C234.858 84.112 234.341 84.0187 233.866 83.832C233.397 83.64 232.989 83.3627 232.642 83C232.301 82.632 232.034 82.1787 231.842 81.64C231.65 81.1013 231.554 80.4827 231.554 79.784C231.554 79.2187 231.639 78.6907 231.81 78.2C231.986 77.7093 232.237 77.2853 232.562 76.928C232.887 76.5653 233.285 76.2827 233.754 76.08C234.223 75.872 234.751 75.768 235.338 75.768C235.823 75.768 236.271 75.8507 236.682 76.016C237.098 76.176 237.455 76.4107 237.754 76.72C238.058 77.024 238.295 77.4027 238.466 77.856C238.637 78.304 238.722 78.816 238.722 79.392C238.722 79.616 238.698 79.7653 238.65 79.84C238.602 79.9147 238.511 79.952 238.378 79.952H232.962C232.978 80.464 233.047 80.9093 233.17 81.288C233.298 81.6667 233.474 81.984 233.698 82.24C233.922 82.4907 234.189 82.68 234.498 82.808C234.807 82.9307 235.154 82.992 235.538 82.992C235.895 82.992 236.202 82.952 236.458 82.872C236.719 82.7867 236.943 82.696 237.13 82.6C237.317 82.504 237.471 82.416 237.594 82.336C237.722 82.2507 237.831 82.208 237.922 82.208C238.039 82.208 238.13 82.2533 238.194 82.344L238.594 82.864ZM248.503 75.896V84H247.071V80.208H243.183V84H241.751V75.896H243.183V79.128H247.071V75.896H248.503ZM258.799 75.896V84H257.367V80.208H253.479V84H252.047V75.896H253.479V79.128H257.367V75.896H258.799ZM269.294 75.896V84H267.87V78.496C267.87 78.3893 267.876 78.2747 267.886 78.152C267.897 78.0293 267.91 77.9067 267.926 77.784C267.878 77.8907 267.83 77.9893 267.782 78.08C267.734 78.1707 267.684 78.2533 267.63 78.328L263.718 83.648C263.66 83.7333 263.585 83.816 263.494 83.896C263.409 83.9707 263.313 84.008 263.206 84.008H262.342V75.904H263.774V81.408C263.774 81.5093 263.769 81.6213 263.758 81.744C263.748 81.8613 263.734 81.9813 263.718 82.104C263.766 82.0027 263.814 81.9093 263.862 81.824C263.91 81.7333 263.958 81.6507 264.006 81.576L267.918 76.256C267.977 76.1707 268.052 76.0907 268.142 76.016C268.233 75.936 268.332 75.896 268.438 75.896H269.294ZM277.745 76.296C277.82 76.1787 277.919 76.0827 278.041 76.008C278.164 75.9333 278.295 75.896 278.433 75.896H279.545L277.441 78.984C277.313 79.1813 277.18 79.344 277.041 79.472C276.903 79.5947 276.732 79.6907 276.529 79.76C276.785 79.8293 277.001 79.9387 277.177 80.088C277.353 80.232 277.511 80.4187 277.649 80.648L279.777 84H278.785C278.529 84 278.332 83.9573 278.193 83.872C278.055 83.7867 277.935 83.664 277.833 83.504L276.257 80.984C276.007 80.568 275.631 80.36 275.129 80.36H274.257V84.008H272.825V75.896H274.257V79.4H275.025C275.452 79.4 275.785 79.2187 276.025 78.856L277.745 76.296ZM285.49 75.768C286.082 75.768 286.616 75.8667 287.09 76.064C287.565 76.2613 287.97 76.5413 288.306 76.904C288.642 77.2667 288.898 77.7067 289.074 78.224C289.256 78.736 289.346 79.3093 289.346 79.944C289.346 80.584 289.256 81.16 289.074 81.672C288.898 82.184 288.642 82.6213 288.306 82.984C287.97 83.3467 287.565 83.6267 287.09 83.824C286.616 84.016 286.082 84.112 285.49 84.112C284.893 84.112 284.354 84.016 283.874 83.824C283.4 83.6267 282.994 83.3467 282.658 82.984C282.322 82.6213 282.064 82.184 281.882 81.672C281.706 81.16 281.618 80.584 281.618 79.944C281.618 79.3093 281.706 78.736 281.882 78.224C282.064 77.7067 282.322 77.2667 282.658 76.904C282.994 76.5413 283.4 76.2613 283.874 76.064C284.354 75.8667 284.893 75.768 285.49 75.768ZM285.49 83C286.29 83 286.888 82.7333 287.282 82.2C287.677 81.6613 287.874 80.912 287.874 79.952C287.874 78.9867 287.677 78.2347 287.282 77.696C286.888 77.1573 286.29 76.888 285.49 76.888C285.085 76.888 284.73 76.9573 284.426 77.096C284.128 77.2347 283.877 77.4347 283.674 77.696C283.477 77.9573 283.328 78.28 283.226 78.664C283.13 79.0427 283.082 79.472 283.082 79.952C283.082 80.912 283.28 81.6613 283.674 82.2C284.074 82.7333 284.68 83 285.49 83ZM295.544 83C296.078 83 296.499 82.8773 296.808 82.632C297.118 82.3813 297.272 82.04 297.272 81.608C297.272 81.416 297.243 81.2427 297.184 81.088C297.126 80.928 297.03 80.7893 296.896 80.672C296.763 80.5547 296.584 80.464 296.36 80.4C296.142 80.336 295.872 80.304 295.552 80.304H293.8V83H295.544ZM293.8 76.856V79.4H295.36C295.595 79.4 295.811 79.368 296.008 79.304C296.211 79.2347 296.384 79.1413 296.528 79.024C296.672 78.9013 296.784 78.7573 296.864 78.592C296.944 78.4213 296.984 78.2347 296.984 78.032C296.984 77.8827 296.958 77.7387 296.904 77.6C296.851 77.456 296.76 77.3307 296.632 77.224C296.504 77.112 296.336 77.024 296.128 76.96C295.92 76.8907 295.664 76.856 295.36 76.856H293.8ZM295.4 75.896C295.902 75.896 296.331 75.9467 296.688 76.048C297.046 76.1493 297.339 76.288 297.568 76.464C297.798 76.6347 297.966 76.8373 298.072 77.072C298.179 77.3067 298.232 77.5573 298.232 77.824C298.232 78 298.208 78.184 298.16 78.376C298.112 78.568 298.027 78.752 297.904 78.928C297.787 79.104 297.624 79.264 297.416 79.408C297.214 79.5467 296.958 79.656 296.648 79.736C297.267 79.8427 297.744 80.0587 298.08 80.384C298.416 80.704 298.584 81.128 298.584 81.656C298.584 82.0507 298.504 82.3947 298.344 82.688C298.19 82.976 297.974 83.2187 297.696 83.416C297.424 83.6133 297.104 83.76 296.736 83.856C296.368 83.952 295.974 84 295.552 84H292.432V75.896H295.4ZM301.562 85.936C301.519 85.8987 301.49 85.864 301.474 85.832C301.458 85.8 301.45 85.76 301.45 85.712C301.45 85.6747 301.461 85.6373 301.482 85.6C301.509 85.5627 301.538 85.528 301.57 85.496C301.623 85.4373 301.69 85.36 301.77 85.264C301.855 85.168 301.941 85.0533 302.026 84.92C302.111 84.792 302.189 84.648 302.258 84.488C302.333 84.3333 302.386 84.168 302.418 83.992C302.402 83.9973 302.383 84 302.362 84C302.346 84 302.33 84 302.314 84C302.037 84 301.81 83.9093 301.634 83.728C301.463 83.5413 301.378 83.304 301.378 83.016C301.378 82.7653 301.463 82.552 301.634 82.376C301.81 82.2 302.042 82.112 302.33 82.112C302.49 82.112 302.631 82.1413 302.754 82.2C302.877 82.2587 302.978 82.3413 303.058 82.448C303.143 82.5493 303.207 82.6693 303.25 82.808C303.293 82.9413 303.314 83.088 303.314 83.248C303.314 83.488 303.279 83.7387 303.21 84C303.146 84.256 303.047 84.5093 302.914 84.76C302.786 85.016 302.629 85.264 302.442 85.504C302.255 85.744 302.042 85.9653 301.802 86.168L301.562 85.936ZM91.544 94.768C92.136 94.768 92.6693 94.8667 93.144 95.064C93.6187 95.2613 94.024 95.5413 94.36 95.904C94.696 96.2667 94.952 96.7067 95.128 97.224C95.3093 97.736 95.4 98.3093 95.4 98.944C95.4 99.584 95.3093 100.16 95.128 100.672C94.952 101.184 94.696 101.621 94.36 101.984C94.024 102.347 93.6187 102.627 93.144 102.824C92.6693 103.016 92.136 103.112 91.544 103.112C90.9467 103.112 90.408 103.016 89.928 102.824C89.4533 102.627 89.048 102.347 88.712 101.984C88.376 101.621 88.1173 101.184 87.936 100.672C87.76 100.16 87.672 99.584 87.672 98.944C87.672 98.3093 87.76 97.736 87.936 97.224C88.1173 96.7067 88.376 96.2667 88.712 95.904C89.048 95.5413 89.4533 95.2613 89.928 95.064C90.408 94.8667 90.9467 94.768 91.544 94.768ZM91.544 102C92.344 102 92.9413 101.733 93.336 101.2C93.7307 100.661 93.928 99.912 93.928 98.952C93.928 97.9867 93.7307 97.2347 93.336 96.696C92.9413 96.1573 92.344 95.888 91.544 95.888C91.1387 95.888 90.784 95.9573 90.48 96.096C90.1813 96.2347 89.9307 96.4347 89.728 96.696C89.5307 96.9573 89.3813 97.28 89.28 97.664C89.184 98.0427 89.136 98.472 89.136 98.952C89.136 99.912 89.3333 100.661 89.728 101.2C90.128 101.733 90.7333 102 91.544 102ZM102.142 102.056C102.942 102.056 103.545 101.803 103.95 101.296C104.361 100.784 104.566 100.069 104.566 99.152C104.566 98.24 104.369 97.528 103.974 97.016C103.585 96.504 102.998 96.248 102.214 96.248C101.835 96.248 101.494 96.3093 101.19 96.432C100.886 96.5493 100.627 96.7227 100.414 96.952C100.206 97.1813 100.043 97.464 99.9261 97.8C99.8141 98.136 99.7581 98.52 99.7581 98.952C99.7581 99.4373 99.8088 99.872 99.9101 100.256C100.011 100.64 100.161 100.965 100.358 101.232C100.561 101.499 100.809 101.704 101.102 101.848C101.401 101.987 101.747 102.056 102.142 102.056ZM102.694 92.992C102.15 93.04 101.683 93.16 101.294 93.352C100.91 93.544 100.59 93.8053 100.334 94.136C100.078 94.4613 99.8861 94.8533 99.7581 95.312C99.6301 95.7707 99.5555 96.288 99.5341 96.864C99.6621 96.608 99.8275 96.3787 100.03 96.176C100.233 95.968 100.465 95.792 100.726 95.648C100.987 95.4987 101.27 95.3867 101.574 95.312C101.883 95.232 102.211 95.192 102.558 95.192C103.097 95.192 103.579 95.288 104.006 95.48C104.438 95.6667 104.803 95.9333 105.102 96.28C105.406 96.6267 105.638 97.0453 105.798 97.536C105.958 98.0213 106.038 98.56 106.038 99.152C106.038 99.7547 105.945 100.301 105.758 100.792C105.577 101.277 105.315 101.693 104.974 102.04C104.633 102.381 104.222 102.645 103.742 102.832C103.267 103.019 102.734 103.112 102.142 103.112C101.598 103.112 101.089 103.021 100.614 102.84C100.139 102.659 99.7288 102.36 99.3821 101.944C99.0355 101.528 98.7608 100.981 98.5581 100.304C98.3608 99.6213 98.2621 98.7813 98.2621 97.784C98.2621 96.9307 98.3395 96.1467 98.4941 95.432C98.6488 94.7173 98.8968 94.096 99.2381 93.568C99.5848 93.04 100.03 92.616 100.574 92.296C101.123 91.9707 101.79 91.7733 102.574 91.704L105.47 91.456L105.55 92.192C105.566 92.3573 105.542 92.496 105.478 92.608C105.414 92.72 105.299 92.7813 105.134 92.792L102.694 92.992ZM121.517 101.92V105.352C121.517 105.491 121.477 105.597 121.398 105.672C121.323 105.752 121.224 105.792 121.102 105.792H120.222V103H109.125V94.896H110.557V101.92H113.861V94.896H115.293V101.92H118.597V94.896H120.03V101.92H121.517ZM128.626 99.352C127.97 99.3733 127.41 99.4267 126.946 99.512C126.487 99.592 126.111 99.6987 125.818 99.832C125.53 99.9653 125.319 100.123 125.186 100.304C125.058 100.485 124.994 100.688 124.994 100.912C124.994 101.125 125.028 101.309 125.098 101.464C125.167 101.619 125.26 101.747 125.378 101.848C125.5 101.944 125.642 102.016 125.802 102.064C125.967 102.107 126.143 102.128 126.33 102.128C126.58 102.128 126.81 102.104 127.018 102.056C127.226 102.003 127.42 101.928 127.602 101.832C127.788 101.736 127.964 101.621 128.13 101.488C128.3 101.355 128.466 101.203 128.626 101.032V99.352ZM124.026 96.04C124.474 95.608 124.956 95.2853 125.474 95.072C125.991 94.8587 126.564 94.752 127.194 94.752C127.647 94.752 128.05 94.8267 128.402 94.976C128.754 95.1253 129.05 95.3333 129.29 95.6C129.53 95.8667 129.711 96.1893 129.834 96.568C129.956 96.9467 130.018 97.3627 130.018 97.816V103H129.386C129.247 103 129.14 102.979 129.066 102.936C128.991 102.888 128.932 102.797 128.89 102.664L128.73 101.896C128.516 102.093 128.308 102.269 128.106 102.424C127.903 102.573 127.69 102.701 127.466 102.808C127.242 102.909 127.002 102.987 126.746 103.04C126.495 103.099 126.215 103.128 125.906 103.128C125.591 103.128 125.295 103.085 125.018 103C124.74 102.909 124.498 102.776 124.29 102.6C124.087 102.424 123.924 102.203 123.802 101.936C123.684 101.664 123.626 101.344 123.626 100.976C123.626 100.656 123.714 100.349 123.89 100.056C124.066 99.7573 124.351 99.4933 124.746 99.264C125.14 99.0347 125.655 98.848 126.29 98.704C126.924 98.5547 127.703 98.4693 128.626 98.448V97.816C128.626 97.1867 128.49 96.712 128.218 96.392C127.946 96.0667 127.548 95.904 127.026 95.904C126.674 95.904 126.378 95.9493 126.138 96.04C125.903 96.1253 125.698 96.224 125.522 96.336C125.351 96.4427 125.202 96.5413 125.074 96.632C124.951 96.7173 124.828 96.76 124.706 96.76C124.61 96.76 124.527 96.736 124.458 96.688C124.388 96.6347 124.33 96.5707 124.282 96.496L124.026 96.04ZM140.419 94.896V103H138.995V97.496C138.995 97.3893 139 97.2747 139.011 97.152C139.021 97.0293 139.035 96.9067 139.051 96.784C139.003 96.8907 138.955 96.9893 138.907 97.08C138.859 97.1707 138.808 97.2533 138.755 97.328L134.843 102.648C134.784 102.733 134.709 102.816 134.619 102.896C134.533 102.971 134.437 103.008 134.331 103.008H133.467V94.904H134.899V100.408C134.899 100.509 134.893 100.621 134.883 100.744C134.872 100.861 134.859 100.981 134.843 101.104C134.891 101.003 134.939 100.909 134.987 100.824C135.035 100.733 135.083 100.651 135.131 100.576L139.043 95.256C139.101 95.1707 139.176 95.0907 139.267 95.016C139.357 94.936 139.456 94.896 139.563 94.896H140.419ZM137.035 92.936C137.253 92.936 137.437 92.912 137.587 92.864C137.736 92.8107 137.856 92.728 137.947 92.616C138.043 92.504 138.112 92.36 138.155 92.184C138.197 92.008 138.219 91.792 138.219 91.536H139.051C139.152 91.536 139.229 91.5813 139.283 91.672C139.336 91.7627 139.363 91.8613 139.363 91.968C139.363 92.2347 139.309 92.4747 139.203 92.688C139.096 92.9013 138.941 93.0853 138.739 93.24C138.541 93.3893 138.299 93.504 138.011 93.584C137.723 93.664 137.397 93.704 137.035 93.704C136.672 93.704 136.347 93.664 136.059 93.584C135.771 93.504 135.525 93.3893 135.323 93.24C135.125 93.0853 134.973 92.9013 134.867 92.688C134.76 92.4747 134.707 92.2347 134.707 91.968C134.707 91.8613 134.733 91.7627 134.787 91.672C134.84 91.5813 134.917 91.536 135.019 91.536H135.851C135.851 91.792 135.872 92.008 135.915 92.184C135.957 92.36 136.024 92.504 136.115 92.616C136.211 92.728 136.333 92.8107 136.483 92.864C136.632 92.912 136.816 92.936 137.035 92.936ZM149.59 96.336C149.547 96.3947 149.505 96.44 149.462 96.472C149.419 96.504 149.361 96.52 149.286 96.52C149.206 96.52 149.118 96.488 149.022 96.424C148.926 96.3547 148.806 96.28 148.662 96.2C148.523 96.12 148.35 96.048 148.142 95.984C147.939 95.9147 147.689 95.88 147.39 95.88C146.99 95.88 146.638 95.952 146.334 96.096C146.03 96.2347 145.774 96.4373 145.566 96.704C145.363 96.9707 145.209 97.2933 145.102 97.672C145.001 98.0507 144.95 98.4747 144.95 98.944C144.95 99.4347 145.006 99.872 145.118 100.256C145.23 100.635 145.387 100.955 145.59 101.216C145.798 101.472 146.046 101.669 146.334 101.808C146.627 101.941 146.955 102.008 147.318 102.008C147.665 102.008 147.95 101.968 148.174 101.888C148.398 101.803 148.582 101.709 148.726 101.608C148.875 101.507 148.998 101.416 149.094 101.336C149.195 101.251 149.294 101.208 149.39 101.208C149.507 101.208 149.598 101.253 149.662 101.344L150.062 101.864C149.886 102.083 149.686 102.269 149.462 102.424C149.238 102.579 148.995 102.709 148.734 102.816C148.478 102.917 148.209 102.992 147.926 103.04C147.643 103.088 147.355 103.112 147.062 103.112C146.555 103.112 146.083 103.019 145.646 102.832C145.214 102.645 144.838 102.376 144.518 102.024C144.198 101.667 143.947 101.229 143.766 100.712C143.585 100.195 143.494 99.6053 143.494 98.944C143.494 98.3413 143.577 97.784 143.742 97.272C143.913 96.76 144.158 96.32 144.478 95.952C144.803 95.5787 145.201 95.288 145.67 95.08C146.145 94.872 146.689 94.768 147.302 94.768C147.873 94.768 148.374 94.8613 148.806 95.048C149.243 95.2293 149.63 95.488 149.966 95.824L149.59 96.336ZM157.135 98.68V95.856H155.775C155.471 95.856 155.215 95.9013 155.007 95.992C154.799 96.0773 154.631 96.1893 154.503 96.328C154.38 96.4613 154.292 96.6133 154.239 96.784C154.185 96.9493 154.159 97.1147 154.159 97.28C154.159 97.7173 154.319 98.0613 154.639 98.312C154.959 98.5573 155.396 98.68 155.951 98.68H157.135ZM158.495 94.896V103H157.135V99.584H156.511C156.361 99.584 156.236 99.5973 156.135 99.624C156.039 99.6453 155.953 99.6773 155.879 99.72C155.809 99.7627 155.748 99.8187 155.695 99.888C155.641 99.952 155.585 100.027 155.527 100.112L153.751 102.504C153.66 102.675 153.548 102.8 153.415 102.88C153.287 102.96 153.097 103 152.847 103H151.855L154.207 99.944C154.399 99.624 154.652 99.4107 154.967 99.304C154.556 99.2507 154.209 99.1547 153.927 99.016C153.644 98.8773 153.412 98.7147 153.231 98.528C153.055 98.336 152.927 98.1253 152.847 97.896C152.767 97.6667 152.727 97.4347 152.727 97.2C152.727 96.9227 152.78 96.6453 152.887 96.368C152.999 96.0907 153.175 95.8453 153.415 95.632C153.655 95.4133 153.964 95.2373 154.343 95.104C154.727 94.9653 155.191 94.896 155.735 94.896H158.495ZM161.953 104.936C161.91 104.899 161.881 104.864 161.865 104.832C161.849 104.8 161.841 104.76 161.841 104.712C161.841 104.675 161.852 104.637 161.873 104.6C161.9 104.563 161.929 104.528 161.961 104.496C162.014 104.437 162.081 104.36 162.161 104.264C162.246 104.168 162.332 104.053 162.417 103.92C162.502 103.792 162.58 103.648 162.649 103.488C162.724 103.333 162.777 103.168 162.809 102.992C162.793 102.997 162.774 103 162.753 103C162.737 103 162.721 103 162.705 103C162.428 103 162.201 102.909 162.025 102.728C161.854 102.541 161.769 102.304 161.769 102.016C161.769 101.765 161.854 101.552 162.025 101.376C162.201 101.2 162.433 101.112 162.721 101.112C162.881 101.112 163.022 101.141 163.145 101.2C163.268 101.259 163.369 101.341 163.449 101.448C163.534 101.549 163.598 101.669 163.641 101.808C163.684 101.941 163.705 102.088 163.705 102.248C163.705 102.488 163.67 102.739 163.601 103C163.537 103.256 163.438 103.509 163.305 103.76C163.177 104.016 163.02 104.264 162.833 104.504C162.646 104.744 162.433 104.965 162.193 105.168L161.953 104.936ZM179.312 94.896L174.792 105.392C174.744 105.499 174.683 105.584 174.608 105.648C174.539 105.712 174.429 105.744 174.28 105.744H173.224L174.704 102.528L171.36 94.896H172.592C172.715 94.896 172.811 94.928 172.88 94.992C172.955 95.0507 173.005 95.1173 173.032 95.192L175.2 100.296C175.285 100.52 175.357 100.755 175.416 101C175.491 100.749 175.571 100.512 175.656 100.288L177.76 95.192C177.792 95.1067 177.845 95.0373 177.92 94.984C178 94.9253 178.088 94.896 178.184 94.896H179.312ZM187.826 94.896V103H186.402V99.56C185.709 99.7413 185.055 99.856 184.442 99.904C183.834 99.9467 183.301 99.8987 182.842 99.76C182.389 99.6213 182.029 99.3787 181.762 99.032C181.501 98.68 181.37 98.1947 181.37 97.576V94.896H182.802V97.36C182.802 97.7493 182.879 98.056 183.034 98.28C183.194 98.504 183.426 98.6587 183.73 98.744C184.034 98.8293 184.41 98.8533 184.858 98.816C185.306 98.7787 185.821 98.6907 186.402 98.552V94.896H187.826ZM198.316 94.896V103H196.892V97.496C196.892 97.3893 196.898 97.2747 196.908 97.152C196.919 97.0293 196.932 96.9067 196.948 96.784C196.9 96.8907 196.852 96.9893 196.804 97.08C196.756 97.1707 196.706 97.2533 196.652 97.328L192.74 102.648C192.682 102.733 192.607 102.816 192.516 102.896C192.431 102.971 192.335 103.008 192.228 103.008H191.364V94.904H192.796V100.408C192.796 100.509 192.791 100.621 192.78 100.744C192.77 100.861 192.756 100.981 192.74 101.104C192.788 101.003 192.836 100.909 192.884 100.824C192.932 100.733 192.98 100.651 193.028 100.576L196.94 95.256C196.999 95.1707 197.074 95.0907 197.164 95.016C197.255 94.936 197.354 94.896 197.46 94.896H198.316ZM207.487 96.336C207.445 96.3947 207.402 96.44 207.359 96.472C207.317 96.504 207.258 96.52 207.183 96.52C207.103 96.52 207.015 96.488 206.919 96.424C206.823 96.3547 206.703 96.28 206.559 96.2C206.421 96.12 206.247 96.048 206.039 95.984C205.837 95.9147 205.586 95.88 205.287 95.88C204.887 95.88 204.535 95.952 204.231 96.096C203.927 96.2347 203.671 96.4373 203.463 96.704C203.261 96.9707 203.106 97.2933 202.999 97.672C202.898 98.0507 202.847 98.4747 202.847 98.944C202.847 99.4347 202.903 99.872 203.015 100.256C203.127 100.635 203.285 100.955 203.487 101.216C203.695 101.472 203.943 101.669 204.231 101.808C204.525 101.941 204.853 102.008 205.215 102.008C205.562 102.008 205.847 101.968 206.071 101.888C206.295 101.803 206.479 101.709 206.623 101.608C206.773 101.507 206.895 101.416 206.991 101.336C207.093 101.251 207.191 101.208 207.287 101.208C207.405 101.208 207.495 101.253 207.559 101.344L207.959 101.864C207.783 102.083 207.583 102.269 207.359 102.424C207.135 102.579 206.893 102.709 206.631 102.816C206.375 102.917 206.106 102.992 205.823 103.04C205.541 103.088 205.253 103.112 204.959 103.112C204.453 103.112 203.981 103.019 203.543 102.832C203.111 102.645 202.735 102.376 202.415 102.024C202.095 101.667 201.845 101.229 201.663 100.712C201.482 100.195 201.391 99.6053 201.391 98.944C201.391 98.3413 201.474 97.784 201.639 97.272C201.81 96.76 202.055 96.32 202.375 95.952C202.701 95.5787 203.098 95.288 203.567 95.08C204.042 94.872 204.586 94.768 205.199 94.768C205.77 94.768 206.271 94.8613 206.703 95.048C207.141 95.2293 207.527 95.488 207.863 95.824L207.487 96.336ZM213.88 101.96C214.168 101.96 214.416 101.925 214.624 101.856C214.837 101.781 215.013 101.68 215.152 101.552C215.291 101.419 215.395 101.264 215.464 101.088C215.533 100.912 215.568 100.72 215.568 100.512C215.568 100.32 215.539 100.141 215.48 99.976C215.421 99.8053 215.323 99.656 215.184 99.528C215.051 99.4 214.875 99.2987 214.656 99.224C214.437 99.1493 214.171 99.112 213.856 99.112H212.136V101.96H213.88ZM213.856 98.072C214.416 98.072 214.885 98.1387 215.264 98.272C215.648 98.4053 215.955 98.584 216.184 98.808C216.419 99.032 216.587 99.2907 216.688 99.584C216.789 99.8773 216.84 100.181 216.84 100.496C216.84 100.859 216.776 101.195 216.648 101.504C216.52 101.808 216.331 102.072 216.08 102.296C215.829 102.515 215.52 102.688 215.152 102.816C214.784 102.939 214.36 103 213.88 103H210.768V94.896H212.136V98.072H213.856Z" fill="#D5D5D5"/>
</svg>
